<svg viewBox="0 0 100 100" xmlns="http://www.w3.org/2000/svg" xmlns:xlink="http://www.w3.org/1999/xlink" width="100.000000" height="100.000000" fill="none">
	<rect id="admin_panel_settings" width="100.000000" height="100.000000" x="0.000000" y="0.000000" fill="rgb(255,255,255)" fill-opacity="0" />
	<path id="矢量 20" d="M70.8333 45.8333C72.25 45.8333 73.625 46 75 46.2083L75 26.125L43.75 12.5L12.5 26.125L12.5 46.5833C12.5 65.5 25.8333 83.2083 43.75 87.5C46.0417 86.9583 48.25 86.1667 50.4167 85.2083C47.5417 81.125 45.8333 76.1667 45.8333 70.8333C45.8333 57.0417 57.0417 45.8333 70.8333 45.8333Z" fill="rgb(255,255,255)" fill-rule="evenodd" />
	<path id="矢量 21" d="M70.8333 54.1667C61.625 54.1667 54.1666 61.6251 54.1666 70.8334C54.1666 80.0417 61.625 87.5001 70.8333 87.5001C80.0416 87.5001 87.5 80.0417 87.5 70.8334C87.5 61.6251 80.0416 54.1667 70.8333 54.1667ZM70.8333 59.9167C73.4166 59.9167 75.5 62.0418 75.5 64.5834C75.5 67.1251 73.375 69.2501 70.8333 69.2501C68.2916 69.2501 66.1666 67.1251 66.1666 64.5834C66.1666 62.0418 68.25 59.9167 70.8333 59.9167ZM70.8333 82.2917C66.9583 82.2917 63.5833 80.3751 61.5 77.4167C61.7083 74.4167 67.7916 72.9167 70.8333 72.9167C73.875 72.9167 79.9583 74.4167 80.1666 77.4167C78.0833 80.3751 74.7083 82.2917 70.8333 82.2917Z" fill="rgb(255,255,255)" fill-rule="evenodd" />
</svg>
