<svg viewBox="0 0 100 100" xmlns="http://www.w3.org/2000/svg" xmlns:xlink="http://www.w3.org/1999/xlink" width="100.000000" height="100.000000" fill="none">
	<rect id="settings_ethernet" width="100.000000" height="100.000000" x="0.000000" y="0.000000" fill="rgb(255,255,255)" fill-opacity="0" />
	<path id="矢量 275" d="M32.3742 28.1666L25.9576 22.8333L3.41589 50L25.9576 77.1667L32.3742 71.8333L14.2492 50L32.3742 28.1666ZM29.1659 54.1667L37.4992 54.1667L37.4992 45.8333L29.1659 45.8333L29.1659 54.1667ZM70.8325 45.8333L62.4992 45.8333L62.4992 54.1667L70.8325 54.1667L70.8325 45.8333ZM45.8325 54.1667L54.1659 54.1667L54.1659 45.8333L45.8325 45.8333L45.8325 54.1667ZM74.0409 22.8333L67.6242 28.1666L85.7492 50L67.6242 71.8333L74.0409 77.1667L96.5825 50L74.0409 22.8333Z" fill="rgb(255,255,255)" fill-rule="evenodd" />
</svg>
