<svg viewBox="0 0 100 100" xmlns="http://www.w3.org/2000/svg" xmlns:xlink="http://www.w3.org/1999/xlink" width="100.000000" height="100.000000" fill="none">
	<rect id="settings_input_antenna" width="100.000000" height="100.000000" x="0.000000" y="0.000000" fill="rgb(255,255,255)" fill-opacity="0" />
	<path id="矢量 276" d="M50 20.8334C33.875 20.8334 20.8333 33.8751 20.8333 50.0001L29.1666 50.0001C29.1666 38.5001 38.5 29.1667 50 29.1667C61.5 29.1667 70.8333 38.5001 70.8333 50.0001L79.1666 50.0001C79.1666 33.8751 66.125 20.8334 50 20.8334ZM54.1666 59.5418C57.8333 57.9168 60.4166 54.2917 60.4166 50.0001C60.4166 44.2501 55.75 39.5834 50 39.5834C44.25 39.5834 39.5833 44.2501 39.5833 50.0001C39.5833 54.2501 42.1666 57.9168 45.8333 59.5418L45.8333 73.2918L31.625 87.5001L37.5 93.3751L50 80.8751L62.5 93.3751L68.3749 87.5001L54.1666 73.2918L54.1666 59.5418ZM50 4.16675C24.7083 4.16675 4.16663 24.7084 4.16663 50.0001L12.5 50.0001C12.5 29.2917 29.2916 12.5001 50 12.5001C70.7083 12.5001 87.4999 29.2917 87.4999 50.0001L95.8333 50.0001C95.8333 24.7084 75.2916 4.16675 50 4.16675Z" fill="rgb(255,255,255)" fill-rule="evenodd" />
</svg>
