<svg viewBox="0 0 100 100" xmlns="http://www.w3.org/2000/svg" xmlns:xlink="http://www.w3.org/1999/xlink" width="100.000000" height="100.000000" fill="none">
	<rect id="live_add_outline_28" width="100.000000" height="100.000000" x="0.000000" y="0.000000" />
	<g id="Source" opacity="0">
		<path id="↳ Icon Color" d="M50 57.1429C53.9449 57.1429 57.1429 53.9449 57.1429 50C57.1429 46.0551 53.9449 42.8572 50 42.8572C46.0551 42.8572 42.8572 46.0551 42.8572 50C42.8572 53.9449 46.0551 57.1429 50 57.1429Z" fill="rgb(38,136,235)" fill-rule="evenodd" />
		<path id="↳ Icon Color" d="M96.4286 75.0001C96.4286 86.8348 86.8347 96.4287 75 96.4287C63.1653 96.4287 53.5714 86.8348 53.5714 75.0001C53.5714 63.1654 63.1653 53.5715 75 53.5715C86.8347 53.5715 96.4286 63.1654 96.4286 75.0001ZM75 60.7144C76.9724 60.7144 78.5714 62.3134 78.5714 64.2858L78.5714 71.4287L85.7143 71.4287C87.6867 71.4287 89.2857 73.0277 89.2857 75.0001C89.2857 76.9725 87.6867 78.5715 85.7143 78.5715L78.5714 78.5715L78.5714 85.7144C78.5714 87.6868 76.9724 89.2858 75 89.2858C73.0275 89.2858 71.4286 87.6868 71.4286 85.7144L71.4286 78.5715L64.2857 78.5715C62.3133 78.5715 60.7143 76.9725 60.7143 75.0001C60.7143 73.0277 62.3133 71.4287 64.2857 71.4287L71.4286 71.4287L71.4286 64.2858C71.4286 62.3134 73.0275 60.7144 75 60.7144Z" fill="rgb(63,138,224)" fill-rule="evenodd" />
		<path id="Ellipse 182" d="M43.1967 70.3262C34.697 67.4825 28.5714 59.4567 28.5714 50.0001C28.5714 38.1654 38.1653 28.5715 50 28.5715C59.3301 28.5715 67.2675 34.5344 70.2092 42.8572C70.2486 42.9686 70.2871 43.0804 70.3246 43.1927" stroke="rgb(63,138,224)" stroke-linecap="round" stroke-width="2.000000" />
		<path id="Ellipse 183" d="M46.1044 89.0951C26.2363 87.1393 10.7142 70.3824 10.7142 50.0001C10.7142 28.3032 28.303 10.7144 49.9999 10.7144C70.3832 10.7144 87.1408 26.2378 89.0952 46.1073" stroke="rgb(63,138,224)" stroke-linecap="round" stroke-width="2.000000" />
	</g>
	<path id="↳ Icon Color" d="M14.2857 50C14.2857 30.2755 30.2755 14.2857 50 14.2857C68.5281 14.2857 83.7646 28.3974 85.541 46.4568C85.7341 48.4198 87.4819 49.8545 89.4449 49.6615C91.4078 49.4684 92.8426 47.7205 92.6495 45.7576C90.517 24.0779 72.2384 7.14282 50 7.14282C26.3306 7.14282 7.14282 26.3306 7.14282 50C7.14282 72.2374 24.0764 90.5153 45.7546 92.6492C47.7176 92.8425 49.4655 91.4078 49.6587 89.4448C49.8519 87.4819 48.4173 85.7339 46.4543 85.5407C28.3962 83.7632 14.2857 68.5272 14.2857 50ZM50 32.1428C40.1377 32.1428 32.1428 40.1377 32.1428 50C32.1428 57.8749 37.2427 64.5681 44.3298 66.9391C46.2004 67.5649 47.2094 69.5886 46.5836 71.4592C45.9578 73.3297 43.9341 74.3387 42.0636 73.7129C32.1513 70.3967 25 61.0381 25 50C25 36.1928 36.1928 25 50 25C60.8907 25 70.1462 31.9618 73.5765 41.6669C73.6225 41.7971 73.6674 41.9276 73.7113 42.0587C74.3375 43.9291 73.3289 45.953 71.4585 46.5792C69.588 47.2054 67.5641 46.1968 66.938 44.3264C66.9067 44.233 66.8747 44.1399 66.8419 44.0473C64.3888 37.1068 57.7695 32.1428 50 32.1428ZM57.1428 50C57.1428 53.9449 53.9449 57.1428 50 57.1428C46.0551 57.1428 42.8571 53.9449 42.8571 50C42.8571 46.0551 46.0551 42.8571 50 42.8571C53.9449 42.8571 57.1428 46.0551 57.1428 50ZM75 96.4285C86.8346 96.4285 96.4285 86.8346 96.4285 75C96.4285 63.1653 86.8346 53.5714 75 53.5714C63.1653 53.5714 53.5714 63.1653 53.5714 75C53.5714 86.8346 63.1653 96.4285 75 96.4285ZM78.5714 64.2857C78.5714 62.3132 76.9724 60.7142 75 60.7142C73.0275 60.7142 71.4285 62.3132 71.4285 64.2857L71.4285 71.4285L64.2857 71.4285C62.3132 71.4285 60.7142 73.0275 60.7142 75C60.7142 76.9724 62.3132 78.5714 64.2857 78.5714L71.4285 78.5714L71.4285 85.7142C71.4285 87.6867 73.0275 89.2857 75 89.2857C76.9724 89.2857 78.5714 87.6867 78.5714 85.7142L78.5714 78.5714L85.7142 78.5714C87.6867 78.5714 89.2857 76.9724 89.2857 75C89.2857 73.0275 87.6867 71.4285 85.7142 71.4285L78.5714 71.4285L78.5714 64.2857Z" fill="rgb(255,255,255)" fill-rule="evenodd" />
</svg>
