<svg viewBox="0 0 100 100" xmlns="http://www.w3.org/2000/svg" xmlns:xlink="http://www.w3.org/1999/xlink" width="100.000000" height="100.000000" fill="none">
	<rect id="live_outline_56" width="100.000000" height="100.000000" x="0.000000" y="0.000000" />
	<path id="↳ Icon Color" d="M95.29 49.645C95.29 24.9882 75.3018 5 50.645 5C25.9882 5 6 24.9882 6 49.645C6 74.3018 25.9882 94.29 50.645 94.29C75.3018 94.29 95.29 74.3018 95.29 49.645ZM11.5806 49.645C11.5806 28.0703 29.0703 10.5806 50.645 10.5806C72.2197 10.5806 89.7094 28.0703 89.7094 49.645C89.7094 71.2197 72.2197 88.7094 50.645 88.7094C29.0703 88.7094 11.5806 71.2197 11.5806 49.645ZM78.5481 49.645C78.5481 65.0555 66.0555 77.5481 50.645 77.5481C35.2345 77.5481 22.7419 65.0555 22.7419 49.645C22.7419 34.2345 35.2345 21.7419 50.645 21.7419C66.0555 21.7419 78.5481 34.2345 78.5481 49.645ZM72.5689 49.645C72.5689 61.7532 62.7532 71.5689 50.645 71.5689C38.5368 71.5689 28.7211 61.7532 28.7211 49.645C28.7211 37.5368 38.5368 27.7211 50.645 27.7211C62.7532 27.7211 72.5689 37.5368 72.5689 49.645ZM59.946 49.645C59.946 54.7818 55.7818 58.946 50.645 58.946C45.5082 58.946 41.344 54.7818 41.344 49.645C41.344 44.5082 45.5082 40.344 50.645 40.344C55.7818 40.344 59.946 44.5082 59.946 49.645Z" fill="rgb(255,255,255)" fill-rule="evenodd" />
</svg>
