<svg viewBox="0 0 100 100" xmlns="http://www.w3.org/2000/svg" xmlns:xlink="http://www.w3.org/1999/xlink" width="100.000000" height="100.000000" fill="none">
	<rect id="live_slash_outline_28" width="100.000000" height="100.000000" x="0.000000" y="0.000000" />
	<path id="Source" d="M38.9389 11.2528L38.939 11.2527L38.9392 11.2527Q42.0643 10.3631 45.3347 9.98393Q48.3556 9.63371 51.3613 9.73481L51.3615 9.73481Q54.2689 9.83261 57.1621 10.3527Q60.3902 10.933 63.4425 12.0112L63.4428 12.0113Q66.0295 12.9251 68.4899 14.1964Q70.7176 15.3475 72.7692 16.7552L72.7694 16.7554Q75.8228 18.8505 78.4862 21.5139Q81.1504 24.1781 83.2459 27.2324L83.246 27.2326Q84.6545 29.2856 85.806 31.5148Q87.0777 33.9765 87.9914 36.5645L87.9914 36.5647Q89.0695 39.6184 89.6492 42.848Q90.1692 45.7448 90.2659 48.6557Q90.3657 51.6606 90.0144 54.6805Q89.6338 57.9529 88.7421 61.0795Q87.9994 63.684 86.902 66.1873C86.6772 66.7001 86.0976 66.9265 85.5847 66.7017C85.0718 66.4768 84.8455 65.8972 85.0703 65.3843Q86.1074 63.0183 86.8112 60.557L86.8113 60.5569Q87.6645 57.5732 88.0278 54.4494Q88.362 51.5764 88.2667 48.7176Q88.1745 45.9528 87.6807 43.2014Q87.1276 40.1203 86.0974 37.208L86.0974 37.2078Q85.2317 34.7607 84.0291 32.4327Q82.9488 30.3414 81.6303 28.4131L81.6299 28.4126Q79.6261 25.4822 77.072 22.9281Q74.5185 20.3747 71.589 18.3712L71.5886 18.3709L71.5885 18.3709Q69.6615 17.0531 67.5718 15.9732Q65.245 14.7709 62.7991 13.9052L62.799 13.9051Q59.888 12.8748 56.8082 12.3212Q54.0601 11.8272 51.2985 11.7339Q48.439 11.6374 45.565 11.9706Q42.4433 12.3325 39.4612 13.1837L39.4612 13.1837Q36.9999 13.8862 34.6337 14.922C34.1207 15.1465 33.5412 14.9199 33.3166 14.4069C33.0921 13.8939 33.3187 13.3144 33.8317 13.0898Q36.3348 11.9941 38.9389 11.2528ZM86.4214 85.0072L14.9928 13.5786C14.5968 13.1827 13.9746 13.1827 13.5786 13.5786C13.1826 13.9746 13.1826 14.5969 13.5786 14.9929L20.8148 22.2291Q18.0511 25.1274 15.9484 28.4447L15.9483 28.4448L15.9483 28.4449Q14.0316 31.4688 12.6642 34.8408Q11.278 38.2592 10.5432 41.8122Q9.71424 45.8203 9.71423 49.9999Q9.71423 54.1791 10.543 58.187Q11.2779 61.7403 12.6642 65.1589Q14.0314 68.5305 15.9477 71.554L15.9478 71.5542Q18.3126 75.2852 21.5136 78.4862Q24.7145 81.687 28.4453 84.0518Q31.4691 85.9683 34.8409 87.3357Q38.2596 88.722 41.8129 89.4568Q45.8207 90.2856 50 90.2856Q54.1802 90.2856 58.1889 89.4564L58.1892 89.4563Q61.7414 88.7215 65.159 87.3357Q68.5317 85.968 71.5561 84.0508L71.5563 84.0507Q74.873 81.9482 77.7707 79.185L85.0072 86.4214C85.4031 86.8174 86.0254 86.8174 86.4214 86.4214C86.8174 86.0255 86.8174 85.4032 86.4214 85.0072ZM76.356 77.7703L65.1372 66.5514Q63.6668 67.9007 62.0081 68.9529L62.005 68.955Q60.3194 70.0239 58.4393 70.7863Q56.5335 71.5592 54.5525 71.9683Q52.3238 72.4287 49.9999 72.4287Q47.6759 72.4287 45.4468 71.9682L45.4465 71.9682Q43.466 71.559 41.5606 70.7863Q39.6786 70.0231 37.9915 68.9528L37.9913 68.9527L37.9912 68.9526Q35.9188 67.6378 34.1405 65.8595Q32.3623 64.0812 31.0475 62.0089L31.0474 62.0089L31.0474 62.0088L31.0474 62.0087Q29.9769 60.3216 29.2137 58.4395Q28.4411 56.5341 28.0319 54.5536L28.0319 54.5534L28.0318 54.5533Q27.5714 52.3243 27.5714 50.0001Q27.5714 47.6761 28.0318 45.4472Q28.4409 43.4664 29.2137 41.5607Q29.9768 39.6789 31.0471 37.9919L31.0471 37.9918L31.0473 37.9916Q32.0995 36.3331 33.4486 34.8629L22.2295 23.6438Q19.609 26.3986 17.616 29.5503Q15.8088 32.4082 14.5176 35.5924Q13.2047 38.8299 12.5067 42.195L12.5066 42.1952Q11.7142 46.0153 11.7142 49.9999Q11.7142 53.9841 12.5065 57.804L12.5066 57.8041Q13.2046 61.1695 14.5176 64.4073Q15.8087 67.5912 17.6156 70.4488L17.6158 70.449Q19.8703 74.0144 22.9279 77.072Q25.9853 80.1294 29.5505 82.3838L29.5507 82.384Q32.4085 84.1911 35.5925 85.4822Q38.8306 86.7953 42.1962 87.4934Q46.0159 88.2856 50 88.2856Q53.985 88.2856 57.8056 87.493L57.8057 87.493Q61.1703 86.7949 64.4074 85.4822Q67.5921 84.1908 70.4505 82.3832L70.4507 82.383Q73.6017 80.3903 76.356 77.7703ZM48.7661 27.6052Q51.2241 27.4706 53.5981 27.8549Q55.7619 28.2053 57.8558 28.9867Q59.9372 29.7635 61.7904 30.9093Q63.9849 32.2662 65.8593 34.1406Q67.7368 36.0181 69.095 38.2165L69.095 38.2166Q70.2433 40.0752 71.0204 42.1633Q71.8019 44.2635 72.1501 46.4332L72.1501 46.4333Q72.5317 48.812 72.3925 51.2742C72.3608 51.8333 71.8967 52.2477 71.3376 52.2161C70.7785 52.1845 70.364 51.7203 70.3956 51.1612Q70.5231 48.908 70.172 46.732Q69.8545 44.7649 69.146 42.8608Q68.4448 40.9769 67.4113 39.2976Q66.1685 37.2783 64.4451 35.5548Q62.7244 33.8341 60.7086 32.5925Q59.0343 31.5613 57.1566 30.8605Q55.2583 30.1521 53.2967 29.8327Q51.1249 29.479 48.8755 29.6022C48.3163 29.6328 47.8529 29.2176 47.8223 28.6584C47.7916 28.0992 48.2069 27.6358 48.7661 27.6052ZM63.7215 65.1357L54.2947 55.7089C51.4961 57.8198 47.4988 57.6005 44.9493 55.051C42.3998 52.5015 42.1805 48.5042 44.2913 45.7056L34.8643 36.2786Q33.6578 37.6045 32.7151 39.097L32.714 39.0986Q31.7538 40.6191 31.0671 42.3123Q30.368 44.0364 29.9957 45.8283L29.9953 45.8302Q29.5714 47.8711 29.5714 50.0001Q29.5714 52.1291 29.9953 54.1701Q30.3677 55.963 31.0671 57.6879Q31.7541 59.382 32.715 60.9031L32.715 60.9032L32.7152 60.9034Q33.9198 62.8103 35.5548 64.4453Q37.1897 66.0802 39.0965 67.2848L39.0968 67.285L39.0969 67.285Q40.618 68.2459 42.3121 68.9329Q44.0368 69.6323 45.8294 70.0047L45.8296 70.0047Q47.8707 70.4287 49.9999 70.4287Q52.1286 70.4287 54.1692 70.0049L54.1694 70.0049Q55.9625 69.6325 57.6877 68.9329Q59.3816 68.246 60.9025 67.2853L60.9029 67.2851L60.9031 67.285Q62.3956 66.3422 63.7215 65.1357Z" opacity="0" fill="rgb(38,136,235)" fill-rule="evenodd" />
	<path id="↳ Icon Color" d="M35.665 17.2775C48.7484 11.5503 64.5544 14.0469 75.2538 24.7463C85.9578 35.4502 88.4519 51.2652 82.7153 64.3518C81.9234 66.1583 82.7459 68.2648 84.5524 69.0566C86.3589 69.8485 88.4654 69.026 89.2572 67.2195C96.1354 51.5288 93.1581 32.549 80.3046 19.6955C67.4566 6.84748 48.4874 3.8673 32.8007 10.7341C30.9937 11.525 30.1702 13.631 30.9611 15.4379C31.7521 17.2449 33.8581 18.0684 35.665 17.2775ZM11.7604 11.7604C13.1551 10.3657 15.4164 10.3657 16.8111 11.7604L88.2397 83.189C89.6344 84.5837 89.6344 86.845 88.2397 88.2397C86.845 89.6345 84.5837 89.6345 83.1889 88.2397L77.6755 82.7263C60.8371 96.9982 35.5817 96.191 19.6954 80.3047C3.80904 64.4183 3.00184 39.163 17.2738 22.3246L11.7604 16.8112C10.3657 15.4164 10.3657 13.1551 11.7604 11.7604ZM62.627 37.3732C58.8904 33.6366 53.9156 31.9015 49.0163 32.1699C47.0468 32.2777 45.3628 30.7686 45.2549 28.7991C45.147 26.8296 46.6562 25.1456 48.6257 25.0377C55.4665 24.663 62.446 27.0906 67.6777 32.3224C72.921 37.5657 75.3478 44.5643 74.96 51.4195C74.8486 53.3888 73.1618 54.8949 71.1925 54.7835C69.2233 54.6721 67.7171 52.9854 67.8285 51.0161C68.1063 46.1063 66.3717 41.1179 62.627 37.3732ZM64.9733 70.0241L72.6038 77.6546C58.5751 89.1491 37.8412 88.3489 24.7461 75.2539C11.6511 62.1589 10.8509 41.4249 22.3455 27.3963L29.9761 35.0269C22.6347 44.8191 23.4168 58.7721 32.3225 67.6777C41.2281 76.5834 55.1811 77.3655 64.9733 70.0241ZM37.3732 62.627C31.2645 56.5182 30.5068 47.0846 35.1004 40.1512L43.0997 48.1505C42.4634 50.5334 43.0799 53.1814 44.9494 55.0508C46.8189 56.9203 49.4668 57.5369 51.8497 56.9005L59.849 64.8998C52.9156 69.4933 43.482 68.7357 37.3732 62.627Z" fill="rgb(255,255,255)" fill-rule="evenodd" />
</svg>
