<svg viewBox="0 0 100 100" xmlns="http://www.w3.org/2000/svg" xmlns:xlink="http://www.w3.org/1999/xlink" width="100.000000" height="100.000000" fill="none">
	<rect id="settings" width="100.000000" height="100.000000" x="0.000000" y="0.000000" fill="rgb(255,255,255)" fill-opacity="0" />
	<path id="矢量 286" d="M79.7505 53.9166C79.9172 52.6666 80.0005 51.3749 80.0005 49.9999C80.0005 48.6666 79.9172 47.3332 79.7088 46.0833L88.1672 39.5C88.9172 38.9167 89.1255 37.7917 88.6672 36.9583L80.6672 23.125C80.1672 22.2083 79.1255 21.9167 78.2088 22.2083L68.2505 26.2083C66.1672 24.625 63.9588 23.2917 61.5005 22.2917L60.0005 11.7083C59.8338 10.7083 59.0005 10 58.0005 10L42.0005 10C41.0005 10 40.2088 10.7083 40.0422 11.7083L38.5422 22.2917C36.0838 23.2917 33.8338 24.6667 31.7922 26.2083L21.8338 22.2083C20.9172 21.875 19.8755 22.2083 19.3755 23.125L11.4172 36.9583C10.9172 37.8333 11.0838 38.9167 11.9172 39.5L20.3755 46.0833C20.1672 47.3332 20.0005 48.7082 20.0005 49.9999C20.0005 51.2916 20.0838 52.6666 20.2922 53.9166L11.8338 60.4999C11.0838 61.0833 10.8755 62.2083 11.3338 63.0416L19.3338 76.8749C19.8338 77.7916 20.8755 78.0832 21.7922 77.7916L31.7505 73.7916C33.8338 75.3749 36.0422 76.7082 38.5005 77.7082L40.0005 88.2916C40.2088 89.2916 41.0005 89.9999 42.0005 89.9999L58.0005 89.9999C59.0005 89.9999 59.8338 89.2916 59.9588 88.2916L61.4588 77.7082C63.9172 76.7082 66.1672 75.3749 68.2088 73.7916L78.1672 77.7916C79.0838 78.1249 80.1255 77.7916 80.6255 76.8749L88.6255 63.0416C89.1255 62.1249 88.9172 61.0833 88.1255 60.4999L79.7505 53.9166ZM50.0005 64.9999C41.7505 64.9999 35.0005 58.2499 35.0005 49.9999C35.0005 41.7499 41.7505 35 50.0005 35C58.2505 35 65.0005 41.7499 65.0005 49.9999C65.0005 58.2499 58.2505 64.9999 50.0005 64.9999Z" fill="rgb(255,255,255)" fill-rule="evenodd" />
</svg>
